<svg width="871" height="283" xmlns="http://www.w3.org/2000/svg" version="1.0" preserveAspectRatio="xMidYMid meet">
 <g>
  <title>Layer 1</title>
  <g transform="translate(0 322) scale(0.1 -0.1)" fill="#000000" id="svg_1">
   <path d="m356,3219c-171,-25 -314,-161 -346,-328c-14,-73 -14,-2099 0,-2172c32,-170 174,-301 355,-329c49,-7 1280,-10 4040,-8l3970,3l61,21c118,41 209,127 256,241l23,58l0,1105l0,1105l-23,58c-45,111 -135,197 -247,235c-47,16 -288,17 -4040,18c-2210,1 -4016,-2 -4049,-7zm1062,-443c76,-40 94,-90 96,-269l1,-142l-25,-3l-25,-3l0,128c-1,201 -26,243 -147,243c-124,0 -240,-56 -270,-130c-6,-14 -13,-95 -17,-180c-6,-153 -6,-155 -29,-158l-24,-4l4,169c4,192 17,238 83,288c77,60 287,96 353,61zm274,-137c28,-15 46,-64 54,-152c7,-74 6,-77 -15,-77c-29,0 -37,3 -33,15c2,6 1,39 -3,73c-9,80 -28,102 -90,102c-41,0 -45,2 -45,25c0,24 3,25 56,25c30,0 64,-5 76,-11zm-280,-54c4,-21 -1,-29 -32,-46c-47,-27 -59,-52 -67,-145c-6,-71 -7,-74 -31,-74l-25,0l5,83c7,110 39,168 108,196c36,14 37,14 42,-14zm5352,-51c9,-4 16,-18 16,-33c0,-25 -3,-27 -35,-23c-55,7 -75,-18 -75,-90l0,-58l45,0c41,0 45,-2 45,-25c0,-23 -4,-25 -45,-25l-45,0l0,-175l0,-175l-35,0l-35,0l0,175l0,175l-35,0c-31,0 -35,3 -35,25c0,22 4,25 34,25l33,0l5,63c3,35 13,75 22,89c28,43 97,69 140,52zm-1804,-304l0,-300l-35,0l-35,0l0,293c0,162 3,297 7,300c3,4 19,7 35,7l28,0l0,-300zm1320,0l0,-300l-35,0c-33,0 -35,2 -35,32l0,32l-27,-26c-82,-78 -201,-56 -251,44c-52,104 -16,265 69,308c65,34 142,28 187,-13l22,-20l0,121l0,122l35,0l35,0l0,-300zm-3154,255c127,-23 193,-113 194,-260c0,-130 -54,-217 -165,-266c-39,-17 -75,-23 -167,-27l-118,-5l0,280c0,154 2,282 5,285c7,7 206,2 251,-7zm-984,-134l133,-49l3,-690c2,-650 1,-690 -15,-697c-10,-3 -73,-26 -140,-51l-122,-44l-698,140c-384,77 -699,140 -700,140c-2,0 -2,230 -1,511l3,512l685,138c377,75 692,138 702,138c9,1 76,-21 150,-48zm1515,-16c12,-3 36,-17 54,-32c92,-78 93,-258 0,-336c-64,-54 -171,-60 -242,-13c-51,35 -79,96 -79,177c1,158 106,239 267,204zm1079,-26c36,-33 44,-78 44,-236l0,-143l-30,0l-30,0l0,123c0,141 -10,188 -47,217c-39,30 -77,26 -121,-14l-37,-34l-3,-146l-4,-146l-29,0l-29,0l0,200l0,200l30,0c26,0 30,-4 30,-26l0,-26l31,26c17,14 43,29 57,32c15,3 32,7 37,8c22,6 78,-14 101,-35zm614,12c129,-65 127,-307 -3,-374c-152,-78 -308,28 -295,201c7,104 53,164 145,187c57,14 105,10 153,-14zm418,0c44,-24 52,-58 52,-231l0,-160l-30,0c-27,0 -30,3 -30,33c0,32 0,32 -18,11c-22,-28 -74,-54 -107,-54c-38,0 -90,25 -109,51c-23,34 -21,110 5,143c29,37 48,45 141,61c44,8 83,17 86,19c9,10 -9,56 -30,76c-28,26 -82,26 -133,0c-51,-26 -55,-25 -55,9c0,32 22,46 100,59c48,9 91,3 128,-17zm1579,8c121,-39 152,-246 53,-350c-107,-112 -298,-57 -330,96c-38,183 102,312 277,254zm485,-28l26,-29l27,28c63,66 189,52 221,-25c10,-25 14,-78 14,-190l0,-155l-30,0l-30,0l0,138c0,110 -3,144 -18,172c-32,65 -106,66 -149,1c-21,-31 -23,-45 -23,-172l0,-139l-35,0l-35,0l0,145c0,154 -7,186 -47,204c-31,14 -46,14 -78,-1c-46,-21 -55,-53 -55,-208l0,-140l-35,0l-35,0l0,200l0,200l36,0c33,0 36,-2 32,-25c-3,-14 -1,-25 3,-25c5,0 9,4 9,10c0,14 46,42 83,50c45,9 87,-5 119,-39zm-802,6c0,-32 -2,-33 -31,-29c-17,2 -41,-1 -54,-8c-44,-23 -55,-66 -55,-209l0,-131l-35,0l-35,0l0,200l0,200l36,0c35,0 36,-1 31,-30c-8,-36 5,-39 22,-6c16,29 45,44 89,45c30,1 32,-1 32,-32zm-3134,-4c3,-16 23,-88 43,-162l37,-133l41,133c23,74 45,146 49,162c5,22 11,27 39,27l32,0l33,-117c18,-65 38,-138 45,-163l12,-45l10,35c5,19 25,92 44,162l34,128l34,0c28,0 32,-3 26,-17c-4,-10 -27,-85 -51,-168c-70,-235 -61,-215 -98,-215l-33,0l-28,98c-56,196 -62,215 -67,206c-2,-5 -24,-75 -49,-156l-44,-148l-31,0c-38,0 -31,-13 -95,200c-27,91 -52,173 -55,183c-4,14 1,17 30,17c31,0 37,-4 42,-27zm679,-1073l0,-295l-32,-3c-31,-3 -33,-1 -33,28l0,32l-34,-30c-41,-36 -98,-48 -154,-32c-142,38 -161,298 -28,388c52,35 141,33 185,-4l31,-26l0,122l0,121l33,-3l32,-3l0,-295zm-907,281c8,-5 12,-21 10,-37c-2,-24 -8,-29 -35,-32c-28,-3 -33,1 -39,23c-10,42 27,70 64,46zm2830,-23c12,-10 18,-68 6,-68c-3,0 -28,7 -55,16c-83,27 -159,-7 -161,-73c-1,-47 17,-68 111,-128c110,-69 136,-104 129,-176c-6,-54 -30,-89 -83,-117c-35,-19 -155,-21 -197,-4c-24,10 -28,17 -28,51l0,40l36,-21c54,-32 144,-31 178,1c28,26 34,68 15,102c-6,11 -48,44 -93,74c-112,72 -136,102 -136,170c0,80 49,132 135,145c52,7 127,1 143,-12zm-3620,-5c5,-10 26,-79 47,-153c20,-74 45,-164 56,-199c10,-35 19,-72 19,-82c0,-24 20,-25 20,-1c1,9 29,114 63,232l63,215l30,3c30,3 31,2 53,-75c50,-175 60,-212 82,-300c13,-51 26,-93 29,-93c3,0 12,26 19,58c7,31 34,136 59,232c43,159 49,175 70,178c51,8 51,2 -4,-195c-29,-103 -66,-230 -80,-280l-27,-93l-38,0l-37,0l-20,68c-11,37 -40,138 -64,225l-44,158l-63,-225l-63,-226l-39,0c-22,0 -39,2 -39,4c0,3 -15,56 -34,118c-55,182 -126,428 -126,438c0,18 59,11 68,-7zm3812,-88l0,-55l50,0c49,0 50,-1 50,-30c0,-29 -1,-30 -50,-30l-50,0l0,-134c0,-153 7,-171 67,-164c30,4 33,2 33,-23c0,-21 -6,-28 -30,-32c-45,-10 -88,3 -110,31c-18,22 -20,41 -20,173l0,149l-39,0c-37,0 -40,2 -38,28c2,24 7,27 40,30l37,3l0,49c0,38 4,50 18,53c40,11 42,8 42,-48zm-1700,-85c87,-62 97,-251 18,-327c-49,-45 -76,-56 -143,-57c-76,0 -124,22 -162,76c-23,34 -28,54 -31,114c-5,87 19,149 73,190c60,46 183,48 245,4zm2163,-3c103,-79 94,-282 -15,-355c-34,-22 -51,-26 -107,-26c-96,0 -152,35 -186,116c-37,91 -2,224 73,270c69,43 176,41 235,-5zm-3483,-162c0,-107 1,-198 3,-202c1,-5 -13,-9 -30,-11l-33,-3l0,205l0,206l30,0l30,0l0,-195zm180,163l0,-31l23,20c36,33 63,43 115,43c35,0 57,-6 77,-22c47,-37 55,-72 55,-238l0,-151l-31,3l-32,3l2,117c1,64 -3,135 -9,157c-23,87 -92,107 -158,47l-37,-34l-3,-147l-3,-146l-30,3l-30,3l0,198c0,108 1,199 1,202c0,3 14,5 30,5c27,0 30,-3 30,-32zm1338,-45c12,-43 33,-118 46,-168c13,-49 26,-83 29,-75c3,8 10,31 16,50c5,19 26,88 46,153c35,113 37,117 64,117c24,0 30,-5 39,-37c31,-118 73,-270 78,-283c5,-13 17,28 78,265c12,46 16,50 46,53c39,4 41,20 -33,-228l-53,-175l-32,-3c-38,-4 -35,-9 -88,176c-27,92 -41,128 -46,115c-4,-10 -26,-79 -50,-153c-43,-135 -43,-135 -75,-138c-18,-2 -33,-1 -33,1c0,3 -61,205 -117,390c-4,14 1,17 29,17c34,0 34,0 56,-77zm726,71c10,-4 16,-18 16,-39c0,-34 0,-34 -27,-19c-58,29 -133,7 -133,-40c0,-33 19,-52 83,-82c71,-33 97,-64 97,-116c0,-84 -106,-138 -205,-106c-35,11 -40,17 -43,46c-4,37 -4,37 34,17c34,-17 97,-20 125,-5c24,13 25,61 2,82c-10,9 -40,27 -68,41c-71,35 -90,60 -90,114c0,39 5,49 37,79c34,31 43,34 97,34c33,0 66,-3 75,-6zm1467,-39c3,-22 7,-33 8,-23c2,28 59,68 97,68c32,0 34,-2 34,-33c0,-32 -1,-33 -35,-29c-25,3 -42,-1 -57,-14c-38,-35 -48,-76 -48,-209l0,-125l-30,0l-30,0l0,206l0,205l28,-3c23,-3 28,-9 33,-43zm449,28c39,-23 70,-83 77,-148l6,-55l-141,0c-77,0 -143,-3 -145,-7c-2,-5 1,-26 7,-48c22,-78 124,-110 209,-66l37,19l0,-28c0,-35 -14,-46 -75,-60c-155,-35 -255,55 -243,219c6,80 31,129 86,166c45,31 137,35 182,8z" id="svg_2"/>
   <path d="m6039,2273c-80,-49 -90,-207 -18,-267c56,-47 147,-26 175,39c19,45 18,148 -1,185c-28,55 -104,76 -156,43z" id="svg_3"/>
   <path d="m2940,2213l0,-226l80,6c153,10 219,69 228,202c6,89 -14,151 -58,189c-40,33 -81,45 -172,50l-78,4l0,-225z" id="svg_4"/>
   <path d="m1408,1962l-168,-25l0,-149l0,-148l200,0l200,0l0,175l0,175l-32,-1c-18,-1 -108,-13 -200,-27z" id="svg_5"/>
   <path d="m1095,1918c-33,-5 -91,-14 -128,-19l-68,-11l3,-121l3,-122l153,-3l152,-3l0,146l0,145l-27,-1c-16,-1 -55,-6 -88,-11z" id="svg_6"/>
   <path d="m902,1488l3,-132l125,-18c69,-9 137,-19 153,-22l27,-5l0,154l0,155l-155,0l-156,0l3,-132z" id="svg_7"/>
   <path d="m1240,1466l0,-154l68,-10c37,-6 117,-18 177,-27c61,-9 120,-18 133,-21l22,-4l0,185l0,185l-200,0l-200,0l0,-154z" id="svg_8"/>
   <path d="m3535,2280c-49,-20 -85,-87 -85,-155c1,-47 35,-112 69,-129c39,-20 110,-20 139,0c54,38 73,151 38,226c-27,56 -102,83 -161,58z" id="svg_9"/>
   <path d="m5183,2270c-49,-30 -66,-71 -61,-153c4,-65 6,-71 41,-103c31,-28 44,-34 83,-34c54,0 97,23 114,59c19,42 23,122 8,166c-25,75 -116,108 -185,65z" id="svg_10"/>
   <path d="m5645,2119c-101,-23 -99,-139 3,-139c63,0 112,52 112,120c0,28 -2,30 -37,29c-21,-1 -56,-5 -78,-10z" id="svg_11"/>
   <path d="m7202,2274c-87,-45 -97,-209 -17,-272c34,-27 102,-29 146,-6c74,38 81,205 11,268c-29,26 -99,31 -140,10z" id="svg_12"/>
   <path d="m4342,1278c-53,-26 -87,-138 -63,-211c34,-103 170,-118 215,-23c21,44 21,147 1,186c-27,52 -98,74 -153,48z" id="svg_13"/>
   <path d="m4815,1280c-76,-31 -104,-171 -51,-252c36,-56 144,-64 193,-15c44,43 52,150 16,219c-24,49 -101,72 -158,48z" id="svg_14"/>
   <path d="m6962,1270c-46,-28 -65,-79 -60,-158c4,-59 7,-67 41,-98c31,-29 44,-34 86,-34c104,0 160,108 118,230c-25,71 -117,101 -185,60z" id="svg_15"/>
   <path d="m7692,1276c-28,-15 -62,-64 -62,-88c0,-16 12,-18 105,-18c99,0 105,1 105,20c0,29 -27,78 -49,90c-26,14 -71,12 -99,-4z" id="svg_16"/>
  </g>
 </g>

</svg>